<svg xmlns="http://www.w3.org/2000/svg" width="454" height="454" fill="none"><rect width="454" height="454" fill="#fff" rx="30"/><path fill="#FAB826" d="M424 424V258l-83 83.5-83-83.5h-62v-76h-90v242h318Z"/><path fill="#000" d="M30 30h90v90H30V30ZM107 356l-55 55h55v-55ZM259 347h-76l-64 64h140v-64Z"/><path stroke="#000" stroke-width="14" d="M342.5 113v51m0-51h36m-36 0H317m25.5 51h-13v22.5l16 33h15.25M342.5 164h36m0-51v51m0-51H419v-1l-51-50H266m112.5 102H391v22.5l-15 33h-15.25m0 0V232c0 4 3.5 6.05 5.5 6.52a19.5 19.5 0 1 1-24 18.98M113 113V62h51m-51 51 51-51m-51 51h102m-102 0v76m0-76-38 38m89-89 51 51m-51-51h102m-51 51 51-51m-51 51h102m-51-51 51 51m0 0 49.25-49.25M341 417h76v-.5L341 341m0 76v-76m0 76h-76m76 0v-74.5m0-1.5-76-76m0 0v76m0-76h-76m76 0v-76m0 228H113m152 0v-76m74.5 0H265m0 0h-76m0 0h-76m76 0v-76m-76 76 76-76m-76 76-38 38m38-38-38-38m38 38H37m76 0v-76m0 76v76m76-152h-76m76 0v-76m-76 76-38-38m38 38H37m76 0v-76m0 76-38 38m38-38 76-76M37 341l38 38m-38-38v-76m0 76 38-38m-38 38v76h76m-38-38-37 37m37-265-38-38v76m38-38 38 38m-38-38-38 38m76 0H37m76 0-38 38m38-38h76m-152 0 38 38m-38-38v76m38-38-38 38m0 0 38 38m114-114h76m-76 0v-46m76 46v-24.5"/></svg>
